<?xml version="1.0" encoding="UTF-8"?><svg id="Layer_2" xmlns="http://www.w3.org/2000/svg" viewBox="0 0 882.45 258.89"><defs><style>.cls-1{fill:#eefc00;}</style></defs><g id="Layer_1-2"><path class="cls-1" d="M411.43,204.35c-22.72,0-40.27-4.72-52.67-14.16-12.4-9.44-19-23.11-19.8-41.03h32.15c.32,9.12,3.84,16.04,10.56,20.76,6.72,4.72,16.56,7.08,29.51,7.08,9.75,0,17.64-1.84,23.63-5.52,6-3.68,9-8.8,9-15.36,0-5.12-1.72-9.36-5.16-12.72-3.44-3.36-7.76-6-12.96-7.92-5.2-1.92-12.44-4.08-21.72-6.48-12.16-3.2-22.12-6.44-29.87-9.72-7.76-3.28-14.4-8.2-19.92-14.76-5.52-6.56-8.28-15.2-8.28-25.91,0-9.44,2.6-17.84,7.8-25.2,5.2-7.36,12.48-13.08,21.83-17.16,9.36-4.08,20.28-6.12,32.75-6.12,19.83,0,35.51,4.4,47.03,13.2,11.52,8.8,17.83,21.2,18.96,37.19h-32.15c-.64-7.68-3.68-13.44-9.12-17.28-5.44-3.84-13.44-5.76-24-5.76-9.6,0-17.24,1.8-22.92,5.4-5.68,3.6-8.52,8.44-8.52,14.52,0,5.12,1.76,9.32,5.28,12.6,3.52,3.28,7.84,5.88,12.96,7.8,5.12,1.92,12.24,4.08,21.36,6.48,12.48,3.2,22.56,6.44,30.23,9.72,7.68,3.28,14.31,8.24,19.92,14.88,5.6,6.64,8.4,15.4,8.4,26.27,0,9.76-2.72,18.36-8.16,25.79-5.44,7.44-13.04,13.2-22.8,17.28-9.76,4.08-20.88,6.12-33.35,6.12Z"/><path class="cls-1" d="M529.97,203.63c-8.32,0-15.76-1.64-22.32-4.92-6.56-3.28-11.68-7.8-15.36-13.56-3.68-5.76-5.52-12.32-5.52-19.68s1.8-13.32,5.4-18.84c3.6-5.52,8.88-9.88,15.84-13.08,6.96-3.2,15.39-4.8,25.32-4.8h50.39v20.88h-47.27c-7.04,0-12.24,1.32-15.6,3.96-3.36,2.64-5.04,6.28-5.04,10.92s1.76,8.08,5.28,10.8c3.52,2.72,9.04,4.08,16.56,4.08,6.56,0,12.44-1.4,17.64-4.2,5.2-2.8,9.28-6.72,12.24-11.76,2.96-5.04,4.44-10.84,4.44-17.4v-22.08c0-7.84-2.32-13.8-6.96-17.88-4.64-4.08-10.88-6.12-18.72-6.12-6.88,0-12.56,1.52-17.04,4.56-4.48,3.04-7.28,7.28-8.4,12.72h-29.03c.8-8.32,3.6-15.6,8.4-21.84s11.2-11.04,19.2-14.4c8-3.36,16.95-5.04,26.87-5.04,11.52,0,21.27,2.04,29.27,6.12,8,4.08,14.04,9.8,18.12,17.16,4.08,7.36,6.12,16,6.12,25.91v76.06h-26.39v-18h-1.2c-3.68,6.08-9.4,11-17.16,14.76-7.76,3.76-16.12,5.64-25.08,5.64Z"/><path class="cls-1" d="M676.58,249.7c-11.04,0-20.8-1.64-29.27-4.92-8.48-3.28-15.4-8.04-20.76-14.28-5.36-6.24-8.84-13.68-10.44-22.32h29.51c2.08,5.44,5.84,9.56,11.28,12.36,5.44,2.8,12,4.2,19.68,4.2,10.24,0,18.39-2.68,24.48-8.04,6.08-5.36,9.12-12.76,9.12-22.2v-13.2h-1.2c-3.84,5.76-9.24,10.32-16.2,13.68-6.96,3.36-14.6,5.04-22.92,5.04-9.92,0-19.16-2.6-27.71-7.8-8.56-5.2-15.32-12.52-20.28-21.96-4.96-9.44-7.44-20.23-7.44-32.39s2.56-22.68,7.68-32.03c5.12-9.36,12-16.68,20.64-21.96,8.64-5.28,18.08-7.92,28.31-7.92,8.64,0,16.4,1.8,23.28,5.4,6.88,3.6,12.24,8.52,16.08,14.76h1.2v-17.76h26.39v110.14c0,19.35-5.36,34.39-16.08,45.11-10.72,10.71-25.84,16.08-45.35,16.08ZM677.3,175.08c6.72,0,12.56-1.48,17.52-4.44,4.96-2.96,8.76-7.28,11.4-12.96,2.64-5.68,3.96-12.36,3.96-20.04s-1.32-13.83-3.96-19.44c-2.64-5.6-6.44-9.88-11.4-12.84-4.96-2.96-10.8-4.44-17.52-4.44s-12.4,1.48-17.52,4.44c-5.12,2.96-9.12,7.24-12,12.84-2.88,5.6-4.32,12.16-4.32,19.68s1.44,14.36,4.32,20.04c2.88,5.68,6.88,9.96,12,12.84,5.12,2.88,10.96,4.32,17.52,4.32Z"/><path class="cls-1" d="M818.62,203.63c-12,0-22.96-2.8-32.87-8.4-9.92-5.6-17.72-13.23-23.4-22.92-5.68-9.68-8.52-20.52-8.52-32.51s2.84-22.83,8.52-32.51c5.68-9.68,13.47-17.31,23.4-22.92,9.92-5.6,20.88-8.4,32.87-8.4s22.59,2.72,32.27,8.16c9.68,5.44,17.36,13.16,23.04,23.16,5.68,10,8.52,21.64,8.52,34.91v6.72h-113.26v-21.36h94.78l-9.6,6.48c-.64-6.56-2.56-12.4-5.76-17.52-3.2-5.12-7.36-9.04-12.48-11.76-5.12-2.72-10.96-4.08-17.52-4.08-7.04,0-13.28,1.6-18.72,4.8-5.44,3.2-9.68,7.76-12.72,13.68-3.04,5.92-4.56,12.8-4.56,20.64s1.52,14.72,4.56,20.64c3.04,5.92,7.28,10.52,12.72,13.8,5.44,3.28,11.68,4.92,18.72,4.92,7.52,0,13.96-1.48,19.32-4.44,5.36-2.96,9.56-7.4,12.6-13.32h29.03c-2.24,7.52-6.08,14.52-11.52,21-5.44,6.48-12.36,11.64-20.76,15.48s-17.96,5.76-28.67,5.76Z"/><rect class="cls-1" y="106.11" width="45.58" height="45.58" rx="12.66" ry="12.66"/><rect class="cls-1" x="106.11" y="213.31" width="45.58" height="45.58" rx="12.66" ry="12.66"/><rect class="cls-1" x="106.11" y="142.21" width="45.58" height="45.58" rx="12.66" ry="12.66"/><rect class="cls-1" x="106.11" y="71.1" width="45.58" height="45.58" rx="12.66" ry="12.66"/><rect class="cls-1" x="213.31" y="107.2" width="45.58" height="45.58" rx="12.66" ry="12.66"/><rect class="cls-1" x="182.46" y="31.63" width="45.58" height="45.58" rx="12.66" ry="12.66"/><rect class="cls-1" x="107.2" y="0" width="45.58" height="45.58" rx="12.66" ry="12.66"/><rect class="cls-1" x="31.63" y="30.85" width="45.58" height="45.58" rx="12.66" ry="12.66"/></g></svg>